<mxfile host="app.diagrams.net" modified="2023-09-04T20:04:52.826Z" agent="Mozilla/5.0 (X11; Linux x86_64; rv:109.0) Gecko/20100101 Firefox/114.0" etag="zDqzC6C6HN-DVCo2PRmg" version="21.7.2" type="github">
  <diagram id="C5RBs43oDa-KdzZeNtuy" name="Page-1">
    <mxGraphModel dx="1434" dy="1913" grid="1" gridSize="10" guides="1" tooltips="1" connect="1" arrows="1" fold="1" page="1" pageScale="1" pageWidth="827" pageHeight="1169" math="0" shadow="0">
      <root>
        <mxCell id="WIyWlLk6GJQsqaUBKTNV-0" />
        <mxCell id="WIyWlLk6GJQsqaUBKTNV-1" parent="WIyWlLk6GJQsqaUBKTNV-0" />
        <mxCell id="zkfFHV4jXpPFQw0GAbJ--0" value="Cidades" style="swimlane;fontStyle=3;align=center;verticalAlign=top;childLayout=stackLayout;horizontal=1;startSize=26;horizontalStack=0;resizeParent=1;resizeLast=0;collapsible=1;marginBottom=0;rounded=0;shadow=0;strokeWidth=2;strokeColor=default;fillStyle=solid;fontSize=14;" parent="WIyWlLk6GJQsqaUBKTNV-1" vertex="1">
          <mxGeometry x="70" y="-130" width="200" height="140" as="geometry">
            <mxRectangle x="120" y="100" width="160" height="26" as="alternateBounds" />
          </mxGeometry>
        </mxCell>
        <mxCell id="zkfFHV4jXpPFQw0GAbJ--1" value="- cod_cidade: int&lt;br&gt;" style="text;align=left;verticalAlign=top;spacingLeft=4;spacingRight=4;overflow=hidden;rotatable=0;points=[[0,0.5],[1,0.5]];portConstraint=eastwest;strokeColor=none;fillColor=default;fillStyle=solid;fontSize=14;html=1;" parent="zkfFHV4jXpPFQw0GAbJ--0" vertex="1">
          <mxGeometry y="26" width="200" height="26" as="geometry" />
        </mxCell>
        <mxCell id="zkfFHV4jXpPFQw0GAbJ--2" value="- nome_cidade: varchar" style="text;align=left;verticalAlign=top;spacingLeft=4;spacingRight=4;overflow=hidden;rotatable=0;points=[[0,0.5],[1,0.5]];portConstraint=eastwest;rounded=0;shadow=0;html=1;strokeColor=none;fillColor=default;fillStyle=solid;fontSize=14;" parent="zkfFHV4jXpPFQw0GAbJ--0" vertex="1">
          <mxGeometry y="52" width="200" height="26" as="geometry" />
        </mxCell>
        <mxCell id="zkfFHV4jXpPFQw0GAbJ--3" value="- estado: varchar" style="text;align=left;verticalAlign=top;spacingLeft=4;spacingRight=4;overflow=hidden;rotatable=0;points=[[0,0.5],[1,0.5]];portConstraint=eastwest;rounded=0;shadow=0;html=1;strokeColor=none;fillColor=default;fillStyle=solid;fontSize=14;" parent="zkfFHV4jXpPFQw0GAbJ--0" vertex="1">
          <mxGeometry y="78" width="200" height="26" as="geometry" />
        </mxCell>
        <mxCell id="zkfFHV4jXpPFQw0GAbJ--4" value="" style="line;html=1;strokeWidth=2;align=left;verticalAlign=middle;spacingTop=-1;spacingLeft=3;spacingRight=3;rotatable=0;labelPosition=right;points=[];portConstraint=eastwest;fillColor=default;strokeColor=default;fillStyle=solid;" parent="zkfFHV4jXpPFQw0GAbJ--0" vertex="1">
          <mxGeometry y="104" width="200" height="8" as="geometry" />
        </mxCell>
        <mxCell id="zkfFHV4jXpPFQw0GAbJ--5" value="Informações sobre as cidades" style="text;align=left;verticalAlign=top;spacingLeft=4;spacingRight=4;overflow=hidden;rotatable=0;points=[[0,0.5],[1,0.5]];portConstraint=eastwest;strokeWidth=7;fillColor=default;fillStyle=solid;fontSize=14;html=1;" parent="zkfFHV4jXpPFQw0GAbJ--0" vertex="1">
          <mxGeometry y="112" width="200" height="26" as="geometry" />
        </mxCell>
        <mxCell id="zkfFHV4jXpPFQw0GAbJ--26" value="" style="endArrow=none;shadow=0;strokeWidth=2;rounded=0;endFill=0;edgeStyle=elbowEdgeStyle;elbow=vertical;entryX=0;entryY=0.5;entryDx=0;entryDy=0;strokeColor=default;" parent="WIyWlLk6GJQsqaUBKTNV-1" source="zkfFHV4jXpPFQw0GAbJ--0" target="5t_VSixZZietdfEZ4rF8-2" edge="1">
          <mxGeometry x="0.5" y="41" relative="1" as="geometry">
            <mxPoint x="380" y="192" as="sourcePoint" />
            <mxPoint x="414" y="-70" as="targetPoint" />
            <mxPoint x="-40" y="32" as="offset" />
          </mxGeometry>
        </mxCell>
        <mxCell id="zkfFHV4jXpPFQw0GAbJ--27" value="(1, 1)" style="resizable=0;align=left;verticalAlign=bottom;labelBackgroundColor=none;fontSize=14;" parent="zkfFHV4jXpPFQw0GAbJ--26" connectable="0" vertex="1">
          <mxGeometry x="-1" relative="1" as="geometry">
            <mxPoint y="-5" as="offset" />
          </mxGeometry>
        </mxCell>
        <mxCell id="zkfFHV4jXpPFQw0GAbJ--28" value="(1,n)" style="resizable=0;align=right;verticalAlign=bottom;labelBackgroundColor=none;fontSize=14;" parent="zkfFHV4jXpPFQw0GAbJ--26" connectable="0" vertex="1">
          <mxGeometry x="1" relative="1" as="geometry">
            <mxPoint x="-7" y="-5" as="offset" />
          </mxGeometry>
        </mxCell>
        <mxCell id="5t_VSixZZietdfEZ4rF8-55" value="(1, 1)" style="resizable=0;align=left;verticalAlign=bottom;labelBackgroundColor=none;fontSize=14;" connectable="0" vertex="1" parent="zkfFHV4jXpPFQw0GAbJ--26">
          <mxGeometry x="-1" relative="1" as="geometry">
            <mxPoint x="150" y="85" as="offset" />
          </mxGeometry>
        </mxCell>
        <mxCell id="5t_VSixZZietdfEZ4rF8-69" value="(1, n)" style="resizable=0;align=left;verticalAlign=bottom;labelBackgroundColor=none;fontSize=14;" connectable="0" vertex="1" parent="zkfFHV4jXpPFQw0GAbJ--26">
          <mxGeometry x="-1" relative="1" as="geometry">
            <mxPoint x="-90" y="405" as="offset" />
          </mxGeometry>
        </mxCell>
        <mxCell id="5t_VSixZZietdfEZ4rF8-71" value="(1, 1)" style="resizable=0;align=left;verticalAlign=bottom;labelBackgroundColor=none;fontSize=14;" connectable="0" vertex="1" parent="zkfFHV4jXpPFQw0GAbJ--26">
          <mxGeometry x="-1" relative="1" as="geometry">
            <mxPoint x="10" y="475" as="offset" />
          </mxGeometry>
        </mxCell>
        <mxCell id="5t_VSixZZietdfEZ4rF8-72" value="(1, n)" style="resizable=0;align=left;verticalAlign=bottom;labelBackgroundColor=none;fontSize=14;" connectable="0" vertex="1" parent="zkfFHV4jXpPFQw0GAbJ--26">
          <mxGeometry x="-1" relative="1" as="geometry">
            <mxPoint x="144" y="475" as="offset" />
          </mxGeometry>
        </mxCell>
        <mxCell id="5t_VSixZZietdfEZ4rF8-74" value="(1, n)" style="resizable=0;align=left;verticalAlign=bottom;labelBackgroundColor=none;fontSize=14;" connectable="0" vertex="1" parent="zkfFHV4jXpPFQw0GAbJ--26">
          <mxGeometry x="-1" relative="1" as="geometry">
            <mxPoint x="400" y="475" as="offset" />
          </mxGeometry>
        </mxCell>
        <mxCell id="5t_VSixZZietdfEZ4rF8-75" value="(1, 1)" style="resizable=0;align=left;verticalAlign=bottom;labelBackgroundColor=none;fontSize=14;" connectable="0" vertex="1" parent="zkfFHV4jXpPFQw0GAbJ--26">
          <mxGeometry x="-1" relative="1" as="geometry">
            <mxPoint x="520" y="475" as="offset" />
          </mxGeometry>
        </mxCell>
        <mxCell id="5t_VSixZZietdfEZ4rF8-77" value="(1, n)" style="resizable=0;align=left;verticalAlign=bottom;labelBackgroundColor=none;fontSize=14;" connectable="0" vertex="1" parent="zkfFHV4jXpPFQw0GAbJ--26">
          <mxGeometry x="-1" relative="1" as="geometry">
            <mxPoint x="620" y="275" as="offset" />
          </mxGeometry>
        </mxCell>
        <mxCell id="5t_VSixZZietdfEZ4rF8-78" value="(1, 1)" style="resizable=0;align=left;verticalAlign=bottom;labelBackgroundColor=none;fontSize=14;" connectable="0" vertex="1" parent="zkfFHV4jXpPFQw0GAbJ--26">
          <mxGeometry x="-1" relative="1" as="geometry">
            <mxPoint x="620" y="95" as="offset" />
          </mxGeometry>
        </mxCell>
        <mxCell id="5t_VSixZZietdfEZ4rF8-0" value="Clientes" style="swimlane;fontStyle=3;align=center;verticalAlign=top;childLayout=stackLayout;horizontal=1;startSize=26;horizontalStack=0;resizeParent=1;resizeLast=0;collapsible=1;marginBottom=0;rounded=0;shadow=0;strokeWidth=2;strokeColor=default;fillStyle=solid;fontSize=14;" vertex="1" parent="WIyWlLk6GJQsqaUBKTNV-1">
          <mxGeometry x="460" y="-130" width="200" height="320" as="geometry">
            <mxRectangle x="120" y="100" width="160" height="26" as="alternateBounds" />
          </mxGeometry>
        </mxCell>
        <mxCell id="5t_VSixZZietdfEZ4rF8-1" value="- cod_cliente: int" style="text;align=left;verticalAlign=top;spacingLeft=4;spacingRight=4;overflow=hidden;rotatable=0;points=[[0,0.5],[1,0.5]];portConstraint=eastwest;strokeColor=none;fillColor=default;fillStyle=solid;fontStyle=0;fontSize=14;html=1;labelBorderColor=none;" vertex="1" parent="5t_VSixZZietdfEZ4rF8-0">
          <mxGeometry y="26" width="200" height="26" as="geometry" />
        </mxCell>
        <mxCell id="5t_VSixZZietdfEZ4rF8-2" value="- fk_cod_cidade: int" style="text;align=left;verticalAlign=top;spacingLeft=4;spacingRight=4;overflow=hidden;rotatable=0;points=[[0,0.5],[1,0.5]];portConstraint=eastwest;rounded=0;shadow=0;strokeColor=none;fillColor=default;fillStyle=solid;fontStyle=0;fontSize=14;html=1;labelBorderColor=none;" vertex="1" parent="5t_VSixZZietdfEZ4rF8-0">
          <mxGeometry y="52" width="200" height="26" as="geometry" />
        </mxCell>
        <mxCell id="5t_VSixZZietdfEZ4rF8-3" value="- email: varchar" style="text;align=left;verticalAlign=top;spacingLeft=4;spacingRight=4;overflow=hidden;rotatable=0;points=[[0,0.5],[1,0.5]];portConstraint=eastwest;rounded=0;shadow=0;strokeColor=none;fillColor=default;fillStyle=solid;fontStyle=0;fontSize=14;html=1;labelBorderColor=none;" vertex="1" parent="5t_VSixZZietdfEZ4rF8-0">
          <mxGeometry y="78" width="200" height="26" as="geometry" />
        </mxCell>
        <mxCell id="5t_VSixZZietdfEZ4rF8-7" value="- senha: varchar" style="text;align=left;verticalAlign=top;spacingLeft=4;spacingRight=4;overflow=hidden;rotatable=0;points=[[0,0.5],[1,0.5]];portConstraint=eastwest;rounded=0;shadow=0;strokeColor=none;fillColor=default;fillStyle=solid;fontStyle=0;fontSize=14;html=1;labelBorderColor=none;" vertex="1" parent="5t_VSixZZietdfEZ4rF8-0">
          <mxGeometry y="104" width="200" height="26" as="geometry" />
        </mxCell>
        <mxCell id="5t_VSixZZietdfEZ4rF8-8" value="- nome_cliente: varchar" style="text;align=left;verticalAlign=top;spacingLeft=4;spacingRight=4;overflow=hidden;rotatable=0;points=[[0,0.5],[1,0.5]];portConstraint=eastwest;rounded=0;shadow=0;strokeColor=none;fillColor=default;fillStyle=solid;fontStyle=0;fontSize=14;html=1;labelBorderColor=none;" vertex="1" parent="5t_VSixZZietdfEZ4rF8-0">
          <mxGeometry y="130" width="200" height="26" as="geometry" />
        </mxCell>
        <mxCell id="5t_VSixZZietdfEZ4rF8-10" value="- data_nascimento: date" style="text;align=left;verticalAlign=top;spacingLeft=4;spacingRight=4;overflow=hidden;rotatable=0;points=[[0,0.5],[1,0.5]];portConstraint=eastwest;rounded=0;shadow=0;strokeColor=none;fillColor=default;fillStyle=solid;fontStyle=0;fontSize=14;html=1;labelBorderColor=none;" vertex="1" parent="5t_VSixZZietdfEZ4rF8-0">
          <mxGeometry y="156" width="200" height="26" as="geometry" />
        </mxCell>
        <mxCell id="5t_VSixZZietdfEZ4rF8-9" value="- telefone: bigint" style="text;align=left;verticalAlign=top;spacingLeft=4;spacingRight=4;overflow=hidden;rotatable=0;points=[[0,0.5],[1,0.5]];portConstraint=eastwest;rounded=0;shadow=0;strokeColor=none;fillColor=default;fillStyle=solid;fontStyle=0;fontSize=14;html=1;labelBorderColor=none;" vertex="1" parent="5t_VSixZZietdfEZ4rF8-0">
          <mxGeometry y="182" width="200" height="26" as="geometry" />
        </mxCell>
        <mxCell id="5t_VSixZZietdfEZ4rF8-11" value="- cpf: bigint" style="text;align=left;verticalAlign=top;spacingLeft=4;spacingRight=4;overflow=hidden;rotatable=0;points=[[0,0.5],[1,0.5]];portConstraint=eastwest;rounded=0;shadow=0;strokeColor=none;fillColor=default;fillStyle=solid;fontStyle=0;fontSize=14;html=1;labelBorderColor=none;" vertex="1" parent="5t_VSixZZietdfEZ4rF8-0">
          <mxGeometry y="208" width="200" height="26" as="geometry" />
        </mxCell>
        <mxCell id="5t_VSixZZietdfEZ4rF8-13" value="- ativo_cliente: varchar" style="text;align=left;verticalAlign=top;spacingLeft=4;spacingRight=4;overflow=hidden;rotatable=0;points=[[0,0.5],[1,0.5]];portConstraint=eastwest;rounded=0;shadow=0;strokeColor=none;fillColor=default;fillStyle=solid;fontStyle=0;fontSize=14;html=1;labelBorderColor=none;" vertex="1" parent="5t_VSixZZietdfEZ4rF8-0">
          <mxGeometry y="234" width="200" height="26" as="geometry" />
        </mxCell>
        <mxCell id="5t_VSixZZietdfEZ4rF8-12" value="- tipo_cadastro: varchar" style="text;align=left;verticalAlign=top;spacingLeft=4;spacingRight=4;overflow=hidden;rotatable=0;points=[[0,0.5],[1,0.5]];portConstraint=eastwest;rounded=0;shadow=0;strokeColor=none;fillColor=default;fillStyle=solid;fontStyle=0;fontSize=14;html=1;labelBorderColor=none;" vertex="1" parent="5t_VSixZZietdfEZ4rF8-0">
          <mxGeometry y="260" width="200" height="26" as="geometry" />
        </mxCell>
        <mxCell id="5t_VSixZZietdfEZ4rF8-4" value="" style="line;html=1;strokeWidth=2;align=left;verticalAlign=middle;spacingTop=-1;spacingLeft=3;spacingRight=3;rotatable=0;labelPosition=right;points=[];portConstraint=eastwest;fillColor=default;strokeColor=default;fillStyle=solid;" vertex="1" parent="5t_VSixZZietdfEZ4rF8-0">
          <mxGeometry y="286" width="200" height="8" as="geometry" />
        </mxCell>
        <mxCell id="5t_VSixZZietdfEZ4rF8-5" value="Informações sobre os clientes" style="text;align=left;verticalAlign=top;spacingLeft=4;spacingRight=4;overflow=hidden;rotatable=0;points=[[0,0.5],[1,0.5]];portConstraint=eastwest;strokeWidth=7;fillColor=default;fillStyle=solid;fontSize=14;html=1;" vertex="1" parent="5t_VSixZZietdfEZ4rF8-0">
          <mxGeometry y="294" width="200" height="26" as="geometry" />
        </mxCell>
        <mxCell id="5t_VSixZZietdfEZ4rF8-15" value="Compras" style="swimlane;fontStyle=3;align=center;verticalAlign=top;childLayout=stackLayout;horizontal=1;startSize=26;horizontalStack=0;resizeParent=1;resizeLast=0;collapsible=1;marginBottom=0;rounded=0;shadow=0;strokeWidth=2;strokeColor=default;fillStyle=solid;fontSize=14;" vertex="1" parent="WIyWlLk6GJQsqaUBKTNV-1">
          <mxGeometry x="70" y="350" width="210" height="140" as="geometry">
            <mxRectangle x="120" y="100" width="160" height="26" as="alternateBounds" />
          </mxGeometry>
        </mxCell>
        <mxCell id="5t_VSixZZietdfEZ4rF8-16" value="- cod_compra: int" style="text;align=left;verticalAlign=top;spacingLeft=4;spacingRight=4;overflow=hidden;rotatable=0;points=[[0,0.5],[1,0.5]];portConstraint=eastwest;strokeColor=none;fillColor=default;fillStyle=solid;fontSize=14;html=1;" vertex="1" parent="5t_VSixZZietdfEZ4rF8-15">
          <mxGeometry y="26" width="210" height="26" as="geometry" />
        </mxCell>
        <mxCell id="5t_VSixZZietdfEZ4rF8-17" value="- fk_cod_cliente: int" style="text;align=left;verticalAlign=top;spacingLeft=4;spacingRight=4;overflow=hidden;rotatable=0;points=[[0,0.5],[1,0.5]];portConstraint=eastwest;rounded=0;shadow=0;html=1;strokeColor=none;fillColor=default;fillStyle=solid;fontSize=14;" vertex="1" parent="5t_VSixZZietdfEZ4rF8-15">
          <mxGeometry y="52" width="210" height="26" as="geometry" />
        </mxCell>
        <mxCell id="5t_VSixZZietdfEZ4rF8-18" value="- data_compra: date" style="text;align=left;verticalAlign=top;spacingLeft=4;spacingRight=4;overflow=hidden;rotatable=0;points=[[0,0.5],[1,0.5]];portConstraint=eastwest;rounded=0;shadow=0;html=1;strokeColor=none;fillColor=default;fillStyle=solid;fontSize=14;" vertex="1" parent="5t_VSixZZietdfEZ4rF8-15">
          <mxGeometry y="78" width="210" height="26" as="geometry" />
        </mxCell>
        <mxCell id="5t_VSixZZietdfEZ4rF8-19" value="" style="line;html=1;strokeWidth=2;align=left;verticalAlign=middle;spacingTop=-1;spacingLeft=3;spacingRight=3;rotatable=0;labelPosition=right;points=[];portConstraint=eastwest;fillColor=default;strokeColor=default;fillStyle=solid;" vertex="1" parent="5t_VSixZZietdfEZ4rF8-15">
          <mxGeometry y="104" width="210" height="8" as="geometry" />
        </mxCell>
        <mxCell id="5t_VSixZZietdfEZ4rF8-20" value="Informações sobre as compras" style="text;align=left;verticalAlign=top;spacingLeft=4;spacingRight=4;overflow=hidden;rotatable=0;points=[[0,0.5],[1,0.5]];portConstraint=eastwest;strokeWidth=7;fillColor=default;fillStyle=solid;fontSize=14;html=1;" vertex="1" parent="5t_VSixZZietdfEZ4rF8-15">
          <mxGeometry y="112" width="210" height="26" as="geometry" />
        </mxCell>
        <mxCell id="5t_VSixZZietdfEZ4rF8-21" value="Carrinhos" style="swimlane;fontStyle=3;align=center;verticalAlign=top;childLayout=stackLayout;horizontal=1;startSize=26;horizontalStack=0;resizeParent=1;resizeLast=0;collapsible=1;marginBottom=0;rounded=0;shadow=0;strokeWidth=2;strokeColor=default;fillStyle=solid;fontSize=14;" vertex="1" parent="WIyWlLk6GJQsqaUBKTNV-1">
          <mxGeometry x="455" y="300" width="210" height="190" as="geometry">
            <mxRectangle x="120" y="100" width="160" height="26" as="alternateBounds" />
          </mxGeometry>
        </mxCell>
        <mxCell id="5t_VSixZZietdfEZ4rF8-22" value="- cod_carrinho: int" style="text;align=left;verticalAlign=top;spacingLeft=4;spacingRight=4;overflow=hidden;rotatable=0;points=[[0,0.5],[1,0.5]];portConstraint=eastwest;strokeColor=none;fillColor=default;fillStyle=solid;fontSize=14;html=1;" vertex="1" parent="5t_VSixZZietdfEZ4rF8-21">
          <mxGeometry y="26" width="210" height="26" as="geometry" />
        </mxCell>
        <mxCell id="5t_VSixZZietdfEZ4rF8-23" value="- fk_cod_compra: int" style="text;align=left;verticalAlign=top;spacingLeft=4;spacingRight=4;overflow=hidden;rotatable=0;points=[[0,0.5],[1,0.5]];portConstraint=eastwest;rounded=0;shadow=0;html=1;strokeColor=none;fillColor=default;fillStyle=solid;fontSize=14;" vertex="1" parent="5t_VSixZZietdfEZ4rF8-21">
          <mxGeometry y="52" width="210" height="26" as="geometry" />
        </mxCell>
        <mxCell id="5t_VSixZZietdfEZ4rF8-24" value="- fk_cod_produto: int" style="text;align=left;verticalAlign=top;spacingLeft=4;spacingRight=4;overflow=hidden;rotatable=0;points=[[0,0.5],[1,0.5]];portConstraint=eastwest;rounded=0;shadow=0;html=1;strokeColor=none;fillColor=default;fillStyle=solid;fontSize=14;" vertex="1" parent="5t_VSixZZietdfEZ4rF8-21">
          <mxGeometry y="78" width="210" height="26" as="geometry" />
        </mxCell>
        <mxCell id="5t_VSixZZietdfEZ4rF8-33" value="- preco_prod: float" style="text;align=left;verticalAlign=top;spacingLeft=4;spacingRight=4;overflow=hidden;rotatable=0;points=[[0,0.5],[1,0.5]];portConstraint=eastwest;rounded=0;shadow=0;html=1;strokeColor=none;fillColor=default;fillStyle=solid;fontSize=14;" vertex="1" parent="5t_VSixZZietdfEZ4rF8-21">
          <mxGeometry y="104" width="210" height="26" as="geometry" />
        </mxCell>
        <mxCell id="5t_VSixZZietdfEZ4rF8-34" value="- quantidade: int" style="text;align=left;verticalAlign=top;spacingLeft=4;spacingRight=4;overflow=hidden;rotatable=0;points=[[0,0.5],[1,0.5]];portConstraint=eastwest;rounded=0;shadow=0;html=1;strokeColor=none;fillColor=default;fillStyle=solid;fontSize=14;" vertex="1" parent="5t_VSixZZietdfEZ4rF8-21">
          <mxGeometry y="130" width="210" height="26" as="geometry" />
        </mxCell>
        <mxCell id="5t_VSixZZietdfEZ4rF8-25" value="" style="line;html=1;strokeWidth=2;align=left;verticalAlign=middle;spacingTop=-1;spacingLeft=3;spacingRight=3;rotatable=0;labelPosition=right;points=[];portConstraint=eastwest;fillColor=default;strokeColor=default;fillStyle=solid;" vertex="1" parent="5t_VSixZZietdfEZ4rF8-21">
          <mxGeometry y="156" width="210" height="8" as="geometry" />
        </mxCell>
        <mxCell id="5t_VSixZZietdfEZ4rF8-26" value="Informações sobre os carrinhos" style="text;align=left;verticalAlign=top;spacingLeft=4;spacingRight=4;overflow=hidden;rotatable=0;points=[[0,0.5],[1,0.5]];portConstraint=eastwest;strokeWidth=7;fillColor=default;fillStyle=solid;fontSize=14;html=1;" vertex="1" parent="5t_VSixZZietdfEZ4rF8-21">
          <mxGeometry y="164" width="210" height="26" as="geometry" />
        </mxCell>
        <mxCell id="5t_VSixZZietdfEZ4rF8-35" value="Produtos" style="swimlane;fontStyle=3;align=center;verticalAlign=top;childLayout=stackLayout;horizontal=1;startSize=26;horizontalStack=0;resizeParent=1;resizeLast=0;collapsible=1;marginBottom=0;rounded=0;shadow=0;strokeWidth=2;strokeColor=default;fillStyle=solid;fontSize=14;" vertex="1" parent="WIyWlLk6GJQsqaUBKTNV-1">
          <mxGeometry x="827" y="220" width="203" height="270" as="geometry">
            <mxRectangle x="120" y="100" width="160" height="26" as="alternateBounds" />
          </mxGeometry>
        </mxCell>
        <mxCell id="5t_VSixZZietdfEZ4rF8-36" value="- cod_produto: int" style="text;align=left;verticalAlign=top;spacingLeft=4;spacingRight=4;overflow=hidden;rotatable=0;points=[[0,0.5],[1,0.5]];portConstraint=eastwest;strokeColor=none;fillColor=default;fillStyle=solid;fontStyle=0;fontSize=14;html=1;labelBorderColor=none;" vertex="1" parent="5t_VSixZZietdfEZ4rF8-35">
          <mxGeometry y="26" width="203" height="26" as="geometry" />
        </mxCell>
        <mxCell id="5t_VSixZZietdfEZ4rF8-37" value="- fk_cod_categoria: int" style="text;align=left;verticalAlign=top;spacingLeft=4;spacingRight=4;overflow=hidden;rotatable=0;points=[[0,0.5],[1,0.5]];portConstraint=eastwest;rounded=0;shadow=0;strokeColor=none;fillColor=default;fillStyle=solid;fontStyle=0;fontSize=14;html=1;labelBorderColor=none;" vertex="1" parent="5t_VSixZZietdfEZ4rF8-35">
          <mxGeometry y="52" width="203" height="26" as="geometry" />
        </mxCell>
        <mxCell id="5t_VSixZZietdfEZ4rF8-38" value="- nome_produto: varchar" style="text;align=left;verticalAlign=top;spacingLeft=4;spacingRight=4;overflow=hidden;rotatable=0;points=[[0,0.5],[1,0.5]];portConstraint=eastwest;rounded=0;shadow=0;strokeColor=none;fillColor=default;fillStyle=solid;fontStyle=0;fontSize=14;html=1;labelBorderColor=none;" vertex="1" parent="5t_VSixZZietdfEZ4rF8-35">
          <mxGeometry y="78" width="203" height="26" as="geometry" />
        </mxCell>
        <mxCell id="5t_VSixZZietdfEZ4rF8-39" value="- preco: float" style="text;align=left;verticalAlign=top;spacingLeft=4;spacingRight=4;overflow=hidden;rotatable=0;points=[[0,0.5],[1,0.5]];portConstraint=eastwest;rounded=0;shadow=0;strokeColor=none;fillColor=default;fillStyle=solid;fontStyle=0;fontSize=14;html=1;labelBorderColor=none;" vertex="1" parent="5t_VSixZZietdfEZ4rF8-35">
          <mxGeometry y="104" width="203" height="26" as="geometry" />
        </mxCell>
        <mxCell id="5t_VSixZZietdfEZ4rF8-40" value="- descricao: varchar" style="text;align=left;verticalAlign=top;spacingLeft=4;spacingRight=4;overflow=hidden;rotatable=0;points=[[0,0.5],[1,0.5]];portConstraint=eastwest;rounded=0;shadow=0;strokeColor=none;fillColor=default;fillStyle=solid;fontStyle=0;fontSize=14;html=1;labelBorderColor=none;" vertex="1" parent="5t_VSixZZietdfEZ4rF8-35">
          <mxGeometry y="130" width="203" height="26" as="geometry" />
        </mxCell>
        <mxCell id="5t_VSixZZietdfEZ4rF8-41" value="- info: varchar" style="text;align=left;verticalAlign=top;spacingLeft=4;spacingRight=4;overflow=hidden;rotatable=0;points=[[0,0.5],[1,0.5]];portConstraint=eastwest;rounded=0;shadow=0;strokeColor=none;fillColor=default;fillStyle=solid;fontStyle=0;fontSize=14;html=1;labelBorderColor=none;" vertex="1" parent="5t_VSixZZietdfEZ4rF8-35">
          <mxGeometry y="156" width="203" height="26" as="geometry" />
        </mxCell>
        <mxCell id="5t_VSixZZietdfEZ4rF8-42" value="- imagem: varchar" style="text;align=left;verticalAlign=top;spacingLeft=4;spacingRight=4;overflow=hidden;rotatable=0;points=[[0,0.5],[1,0.5]];portConstraint=eastwest;rounded=0;shadow=0;strokeColor=none;fillColor=default;fillStyle=solid;fontStyle=0;fontSize=14;html=1;labelBorderColor=none;" vertex="1" parent="5t_VSixZZietdfEZ4rF8-35">
          <mxGeometry y="182" width="203" height="26" as="geometry" />
        </mxCell>
        <mxCell id="5t_VSixZZietdfEZ4rF8-43" value="- ativo_produto: varchar" style="text;align=left;verticalAlign=top;spacingLeft=4;spacingRight=4;overflow=hidden;rotatable=0;points=[[0,0.5],[1,0.5]];portConstraint=eastwest;rounded=0;shadow=0;strokeColor=none;fillColor=default;fillStyle=solid;fontStyle=0;fontSize=14;html=1;labelBorderColor=none;" vertex="1" parent="5t_VSixZZietdfEZ4rF8-35">
          <mxGeometry y="208" width="203" height="26" as="geometry" />
        </mxCell>
        <mxCell id="5t_VSixZZietdfEZ4rF8-46" value="" style="line;html=1;strokeWidth=2;align=left;verticalAlign=middle;spacingTop=-1;spacingLeft=3;spacingRight=3;rotatable=0;labelPosition=right;points=[];portConstraint=eastwest;fillColor=default;strokeColor=default;fillStyle=solid;" vertex="1" parent="5t_VSixZZietdfEZ4rF8-35">
          <mxGeometry y="234" width="203" height="8" as="geometry" />
        </mxCell>
        <mxCell id="5t_VSixZZietdfEZ4rF8-47" value="Informações sobre os produtos" style="text;align=left;verticalAlign=top;spacingLeft=4;spacingRight=4;overflow=hidden;rotatable=0;points=[[0,0.5],[1,0.5]];portConstraint=eastwest;strokeWidth=7;fillColor=default;fillStyle=solid;fontSize=14;html=1;" vertex="1" parent="5t_VSixZZietdfEZ4rF8-35">
          <mxGeometry y="242" width="203" height="26" as="geometry" />
        </mxCell>
        <mxCell id="5t_VSixZZietdfEZ4rF8-48" value="Categorias" style="swimlane;fontStyle=3;align=center;verticalAlign=top;childLayout=stackLayout;horizontal=1;startSize=26;horizontalStack=0;resizeParent=1;resizeLast=0;collapsible=1;marginBottom=0;rounded=0;shadow=0;strokeWidth=2;strokeColor=default;fillStyle=solid;fontSize=14;" vertex="1" parent="WIyWlLk6GJQsqaUBKTNV-1">
          <mxGeometry x="822" y="-130" width="218" height="140" as="geometry">
            <mxRectangle x="120" y="100" width="160" height="26" as="alternateBounds" />
          </mxGeometry>
        </mxCell>
        <mxCell id="5t_VSixZZietdfEZ4rF8-49" value="- cod_categoria: int" style="text;align=left;verticalAlign=top;spacingLeft=4;spacingRight=4;overflow=hidden;rotatable=0;points=[[0,0.5],[1,0.5]];portConstraint=eastwest;strokeColor=none;fillColor=default;fillStyle=solid;fontSize=14;html=1;" vertex="1" parent="5t_VSixZZietdfEZ4rF8-48">
          <mxGeometry y="26" width="218" height="26" as="geometry" />
        </mxCell>
        <mxCell id="5t_VSixZZietdfEZ4rF8-50" value="- nome_categoria: varchar" style="text;align=left;verticalAlign=top;spacingLeft=4;spacingRight=4;overflow=hidden;rotatable=0;points=[[0,0.5],[1,0.5]];portConstraint=eastwest;rounded=0;shadow=0;html=1;strokeColor=none;fillColor=default;fillStyle=solid;fontSize=14;" vertex="1" parent="5t_VSixZZietdfEZ4rF8-48">
          <mxGeometry y="52" width="218" height="26" as="geometry" />
        </mxCell>
        <mxCell id="5t_VSixZZietdfEZ4rF8-51" value="- ativo_categoria: varchar" style="text;align=left;verticalAlign=top;spacingLeft=4;spacingRight=4;overflow=hidden;rotatable=0;points=[[0,0.5],[1,0.5]];portConstraint=eastwest;rounded=0;shadow=0;html=1;strokeColor=none;fillColor=default;fillStyle=solid;fontSize=14;" vertex="1" parent="5t_VSixZZietdfEZ4rF8-48">
          <mxGeometry y="78" width="218" height="26" as="geometry" />
        </mxCell>
        <mxCell id="5t_VSixZZietdfEZ4rF8-52" value="" style="line;html=1;strokeWidth=2;align=left;verticalAlign=middle;spacingTop=-1;spacingLeft=3;spacingRight=3;rotatable=0;labelPosition=right;points=[];portConstraint=eastwest;fillColor=default;strokeColor=default;fillStyle=solid;" vertex="1" parent="5t_VSixZZietdfEZ4rF8-48">
          <mxGeometry y="104" width="218" height="8" as="geometry" />
        </mxCell>
        <mxCell id="5t_VSixZZietdfEZ4rF8-53" value="Informações sobre as categorias" style="text;align=left;verticalAlign=top;spacingLeft=4;spacingRight=4;overflow=hidden;rotatable=0;points=[[0,0.5],[1,0.5]];portConstraint=eastwest;strokeWidth=7;fillColor=default;fillStyle=solid;fontSize=14;html=1;" vertex="1" parent="5t_VSixZZietdfEZ4rF8-48">
          <mxGeometry y="112" width="218" height="26" as="geometry" />
        </mxCell>
        <mxCell id="5t_VSixZZietdfEZ4rF8-54" value="" style="endArrow=none;html=1;rounded=0;" edge="1" parent="WIyWlLk6GJQsqaUBKTNV-1" source="5t_VSixZZietdfEZ4rF8-15" target="5t_VSixZZietdfEZ4rF8-0">
          <mxGeometry width="50" height="50" relative="1" as="geometry">
            <mxPoint x="140" y="270" as="sourcePoint" />
            <mxPoint x="390" y="170" as="targetPoint" />
            <Array as="points">
              <mxPoint x="175" y="30" />
            </Array>
          </mxGeometry>
        </mxCell>
        <mxCell id="5t_VSixZZietdfEZ4rF8-70" value="" style="endArrow=none;html=1;rounded=0;" edge="1" parent="WIyWlLk6GJQsqaUBKTNV-1" source="5t_VSixZZietdfEZ4rF8-15" target="5t_VSixZZietdfEZ4rF8-33">
          <mxGeometry width="50" height="50" relative="1" as="geometry">
            <mxPoint x="340" y="430" as="sourcePoint" />
            <mxPoint x="450" y="410" as="targetPoint" />
            <Array as="points" />
          </mxGeometry>
        </mxCell>
        <mxCell id="5t_VSixZZietdfEZ4rF8-73" value="" style="endArrow=none;html=1;rounded=0;" edge="1" parent="WIyWlLk6GJQsqaUBKTNV-1" source="5t_VSixZZietdfEZ4rF8-33" target="5t_VSixZZietdfEZ4rF8-42">
          <mxGeometry width="50" height="50" relative="1" as="geometry">
            <mxPoint x="665" y="401" as="sourcePoint" />
            <mxPoint x="840" y="400" as="targetPoint" />
            <Array as="points" />
          </mxGeometry>
        </mxCell>
        <mxCell id="5t_VSixZZietdfEZ4rF8-76" value="" style="endArrow=none;html=1;rounded=0;" edge="1" parent="WIyWlLk6GJQsqaUBKTNV-1" source="5t_VSixZZietdfEZ4rF8-35" target="5t_VSixZZietdfEZ4rF8-53">
          <mxGeometry width="50" height="50" relative="1" as="geometry">
            <mxPoint x="902" y="150" as="sourcePoint" />
            <mxPoint x="952" y="100" as="targetPoint" />
          </mxGeometry>
        </mxCell>
      </root>
    </mxGraphModel>
  </diagram>
</mxfile>
